%TF.GenerationSoftware,KiCad,Pcbnew,8.0.3*%
%TF.CreationDate,2024-07-08T01:17:26+08:00*%
%TF.ProjectId,First_pcb,46697273-745f-4706-9362-2e6b69636164,rev?*%
%TF.SameCoordinates,Original*%
%TF.FileFunction,Copper,L2,Bot*%
%TF.FilePolarity,Positive*%
%FSLAX46Y46*%
G04 Gerber Fmt 4.6, Leading zero omitted, Abs format (unit mm)*
G04 Created by KiCad (PCBNEW 8.0.3) date 2024-07-08 01:17:26*
%MOMM*%
%LPD*%
G01*
G04 APERTURE LIST*
G04 Aperture macros list*
%AMRoundRect*
0 Rectangle with rounded corners*
0 $1 Rounding radius*
0 $2 $3 $4 $5 $6 $7 $8 $9 X,Y pos of 4 corners*
0 Add a 4 corners polygon primitive as box body*
4,1,4,$2,$3,$4,$5,$6,$7,$8,$9,$2,$3,0*
0 Add four circle primitives for the rounded corners*
1,1,$1+$1,$2,$3*
1,1,$1+$1,$4,$5*
1,1,$1+$1,$6,$7*
1,1,$1+$1,$8,$9*
0 Add four rect primitives between the rounded corners*
20,1,$1+$1,$2,$3,$4,$5,0*
20,1,$1+$1,$4,$5,$6,$7,0*
20,1,$1+$1,$6,$7,$8,$9,0*
20,1,$1+$1,$8,$9,$2,$3,0*%
G04 Aperture macros list end*
%TA.AperFunction,ComponentPad*%
%ADD10C,2.000000*%
%TD*%
%TA.AperFunction,ComponentPad*%
%ADD11R,1.700000X1.700000*%
%TD*%
%TA.AperFunction,ComponentPad*%
%ADD12O,1.700000X1.700000*%
%TD*%
%TA.AperFunction,ComponentPad*%
%ADD13RoundRect,0.250000X1.800000X-1.330000X1.800000X1.330000X-1.800000X1.330000X-1.800000X-1.330000X0*%
%TD*%
%TA.AperFunction,ComponentPad*%
%ADD14O,4.100000X3.160000*%
%TD*%
%TA.AperFunction,Conductor*%
%ADD15C,0.200000*%
%TD*%
G04 APERTURE END LIST*
D10*
%TO.P,SW1,1,1*%
%TO.N,/15*%
X153900000Y-59500000D03*
X153900000Y-53000000D03*
%TO.P,SW1,2,2*%
%TO.N,/3.3V*%
X158400000Y-59500000D03*
X158400000Y-53000000D03*
%TD*%
%TO.P,SW2,1,1*%
%TO.N,/35*%
X153900000Y-71500000D03*
X153900000Y-65000000D03*
%TO.P,SW2,2,2*%
%TO.N,/3.3V*%
X158400000Y-71500000D03*
X158400000Y-65000000D03*
%TD*%
D11*
%TO.P,J2,1,Pin_1*%
%TO.N,/RESET*%
X108550000Y-43990000D03*
D12*
%TO.P,J2,2,Pin_2*%
%TO.N,/3.3V*%
X108550000Y-46530000D03*
%TO.P,J2,3,Pin_3*%
%TO.N,/nothing*%
X108550000Y-49070000D03*
%TO.P,J2,4,Pin_4*%
%TO.N,GND*%
X108550000Y-51610000D03*
%TO.P,J2,5,Pin_5*%
%TO.N,/18*%
X108550000Y-54150000D03*
%TO.P,J2,6,Pin_6*%
%TO.N,/23*%
X108550000Y-56690000D03*
%TO.P,J2,7,Pin_7*%
%TO.N,/19*%
X108550000Y-59230000D03*
%TO.P,J2,8,Pin_8*%
%TO.N,/22*%
X108550000Y-61770000D03*
%TO.P,J2,9,Pin_9*%
%TO.N,/21*%
X108550000Y-64310000D03*
%TO.P,J2,10,Pin_10*%
%TO.N,/2*%
X108550000Y-66850000D03*
%TO.P,J2,11,Pin_11*%
%TO.N,/13*%
X108550000Y-69390000D03*
%TO.P,J2,12,Pin_12*%
%TO.N,/14*%
X108550000Y-71930000D03*
%TO.P,J2,13,Pin_13*%
%TO.N,/0*%
X108550000Y-74470000D03*
%TO.P,J2,14,Pin_14*%
%TO.N,/26*%
X108550000Y-77010000D03*
%TO.P,J2,15,Pin_15*%
%TO.N,/25*%
X108550000Y-79550000D03*
%TO.P,J2,16,Pin_16*%
%TO.N,/1*%
X108550000Y-82090000D03*
%TO.P,J2,17,Pin_17*%
%TO.N,/3*%
X108550000Y-84630000D03*
%TD*%
D13*
%TO.P,J5,1,Pin_1*%
%TO.N,/3.3V*%
X95455000Y-98260000D03*
D14*
%TO.P,J5,2,Pin_2*%
%TO.N,/Vcc*%
X95455000Y-94300000D03*
%TO.P,J5,3,Pin_3*%
%TO.N,GND*%
X95455000Y-90340000D03*
%TD*%
D10*
%TO.P,SW3,1,1*%
%TO.N,/34*%
X153900000Y-83100000D03*
X153900000Y-76600000D03*
%TO.P,SW3,2,2*%
%TO.N,/3.3V*%
X158400000Y-83100000D03*
X158400000Y-76600000D03*
%TD*%
D11*
%TO.P,J3,1,Pin_1*%
%TO.N,/RESET*%
X101050000Y-44040000D03*
D12*
%TO.P,J3,2,Pin_2*%
%TO.N,/3.3V*%
X101050000Y-46580000D03*
%TO.P,J3,3,Pin_3*%
%TO.N,/nothing*%
X101050000Y-49120000D03*
%TO.P,J3,4,Pin_4*%
%TO.N,GND*%
X101050000Y-51660000D03*
%TO.P,J3,5,Pin_5*%
%TO.N,/18*%
X101050000Y-54200000D03*
%TO.P,J3,6,Pin_6*%
%TO.N,/23*%
X101050000Y-56740000D03*
%TO.P,J3,7,Pin_7*%
%TO.N,/19*%
X101050000Y-59280000D03*
%TO.P,J3,8,Pin_8*%
%TO.N,/22*%
X101050000Y-61820000D03*
%TO.P,J3,9,Pin_9*%
%TO.N,/21*%
X101050000Y-64360000D03*
%TO.P,J3,10,Pin_10*%
%TO.N,/2*%
X101050000Y-66900000D03*
%TO.P,J3,11,Pin_11*%
%TO.N,/13*%
X101050000Y-69440000D03*
%TO.P,J3,12,Pin_12*%
%TO.N,/14*%
X101050000Y-71980000D03*
%TO.P,J3,13,Pin_13*%
%TO.N,/0*%
X101050000Y-74520000D03*
%TO.P,J3,14,Pin_14*%
%TO.N,/26*%
X101050000Y-77060000D03*
%TO.P,J3,15,Pin_15*%
%TO.N,/25*%
X101050000Y-79600000D03*
%TO.P,J3,16,Pin_16*%
%TO.N,/1*%
X101050000Y-82140000D03*
%TO.P,J3,17,Pin_17*%
%TO.N,/3*%
X101050000Y-84680000D03*
%TD*%
D11*
%TO.P,J1,1,Pin_1*%
%TO.N,/Vcc*%
X131400000Y-51640000D03*
D12*
%TO.P,J1,2,Pin_2*%
%TO.N,/3.3V*%
X131400000Y-54180000D03*
%TO.P,J1,3,Pin_3*%
%TO.N,GND*%
X131400000Y-56720000D03*
%TO.P,J1,4,Pin_4*%
%TO.N,/22*%
X131400000Y-59260000D03*
%TO.P,J1,5,Pin_5*%
%TO.N,/21*%
X131400000Y-61800000D03*
%TO.P,J1,6,Pin_6*%
%TO.N,/15*%
X131400000Y-64340000D03*
%TO.P,J1,7,Pin_7*%
%TO.N,/35*%
X131400000Y-66880000D03*
%TO.P,J1,8,Pin_8*%
%TO.N,/34*%
X131400000Y-69420000D03*
%TO.P,J1,9,Pin_9*%
%TO.N,/39*%
X131400000Y-71960000D03*
%TO.P,J1,10,Pin_10*%
%TO.N,/36*%
X131400000Y-74500000D03*
%TO.P,J1,11,Pin_11*%
%TO.N,/12*%
X131400000Y-77040000D03*
%TO.P,J1,12,Pin_12*%
%TO.N,/4*%
X131400000Y-79580000D03*
%TO.P,J1,13,Pin_13*%
%TO.N,/16*%
X131400000Y-82120000D03*
%TO.P,J1,14,Pin_14*%
%TO.N,/17*%
X131400000Y-84660000D03*
%TD*%
D11*
%TO.P,J4,1,Pin_1*%
%TO.N,/Vcc*%
X138900000Y-51640000D03*
D12*
%TO.P,J4,2,Pin_2*%
%TO.N,/3.3V*%
X138900000Y-54180000D03*
%TO.P,J4,3,Pin_3*%
%TO.N,GND*%
X138900000Y-56720000D03*
%TO.P,J4,4,Pin_4*%
%TO.N,/22*%
X138900000Y-59260000D03*
%TO.P,J4,5,Pin_5*%
%TO.N,/21*%
X138900000Y-61800000D03*
%TO.P,J4,6,Pin_6*%
%TO.N,/15*%
X138900000Y-64340000D03*
%TO.P,J4,7,Pin_7*%
%TO.N,/35*%
X138900000Y-66880000D03*
%TO.P,J4,8,Pin_8*%
%TO.N,/34*%
X138900000Y-69420000D03*
%TO.P,J4,9,Pin_9*%
%TO.N,/39*%
X138900000Y-71960000D03*
%TO.P,J4,10,Pin_10*%
%TO.N,/36*%
X138900000Y-74500000D03*
%TO.P,J4,11,Pin_11*%
%TO.N,/12*%
X138900000Y-77040000D03*
%TO.P,J4,12,Pin_12*%
%TO.N,/4*%
X138900000Y-79580000D03*
%TO.P,J4,13,Pin_13*%
%TO.N,/16*%
X138900000Y-82120000D03*
%TO.P,J4,14,Pin_14*%
%TO.N,/17*%
X138900000Y-84660000D03*
%TD*%
D15*
%TO.N,/3.3V*%
X95455000Y-98260000D02*
X104550000Y-89165000D01*
X104550000Y-89165000D02*
X104550000Y-50080000D01*
X104550000Y-50080000D02*
X101050000Y-46580000D01*
%TO.N,/Vcc*%
X93105000Y-42195000D02*
X94800000Y-40500000D01*
X93105000Y-91950000D02*
X93105000Y-42195000D01*
X95455000Y-94300000D02*
X93105000Y-91950000D01*
X94800000Y-40500000D02*
X120260000Y-40500000D01*
X120260000Y-40500000D02*
X131400000Y-51640000D01*
%TD*%
M02*
