%TF.GenerationSoftware,KiCad,Pcbnew,8.0.3*%
%TF.CreationDate,2024-07-18T02:13:28+08:00*%
%TF.ProjectId,sesto_remote_v2,73657374-6f5f-4726-956d-6f74655f7632,rev?*%
%TF.SameCoordinates,Original*%
%TF.FileFunction,Legend,Top*%
%TF.FilePolarity,Positive*%
%FSLAX46Y46*%
G04 Gerber Fmt 4.6, Leading zero omitted, Abs format (unit mm)*
G04 Created by KiCad (PCBNEW 8.0.3) date 2024-07-18 02:13:28*
%MOMM*%
%LPD*%
G01*
G04 APERTURE LIST*
%ADD10C,0.100000*%
%ADD11C,0.150000*%
%ADD12C,0.120000*%
G04 APERTURE END LIST*
D10*
X88586265Y-59814800D02*
X88729122Y-59862419D01*
X88729122Y-59862419D02*
X88967217Y-59862419D01*
X88967217Y-59862419D02*
X89062455Y-59814800D01*
X89062455Y-59814800D02*
X89110074Y-59767180D01*
X89110074Y-59767180D02*
X89157693Y-59671942D01*
X89157693Y-59671942D02*
X89157693Y-59576704D01*
X89157693Y-59576704D02*
X89110074Y-59481466D01*
X89110074Y-59481466D02*
X89062455Y-59433847D01*
X89062455Y-59433847D02*
X88967217Y-59386228D01*
X88967217Y-59386228D02*
X88776741Y-59338609D01*
X88776741Y-59338609D02*
X88681503Y-59290990D01*
X88681503Y-59290990D02*
X88633884Y-59243371D01*
X88633884Y-59243371D02*
X88586265Y-59148133D01*
X88586265Y-59148133D02*
X88586265Y-59052895D01*
X88586265Y-59052895D02*
X88633884Y-58957657D01*
X88633884Y-58957657D02*
X88681503Y-58910038D01*
X88681503Y-58910038D02*
X88776741Y-58862419D01*
X88776741Y-58862419D02*
X89014836Y-58862419D01*
X89014836Y-58862419D02*
X89157693Y-58910038D01*
X89586265Y-59862419D02*
X89586265Y-58862419D01*
X89586265Y-58862419D02*
X89824360Y-58862419D01*
X89824360Y-58862419D02*
X89967217Y-58910038D01*
X89967217Y-58910038D02*
X90062455Y-59005276D01*
X90062455Y-59005276D02*
X90110074Y-59100514D01*
X90110074Y-59100514D02*
X90157693Y-59290990D01*
X90157693Y-59290990D02*
X90157693Y-59433847D01*
X90157693Y-59433847D02*
X90110074Y-59624323D01*
X90110074Y-59624323D02*
X90062455Y-59719561D01*
X90062455Y-59719561D02*
X89967217Y-59814800D01*
X89967217Y-59814800D02*
X89824360Y-59862419D01*
X89824360Y-59862419D02*
X89586265Y-59862419D01*
X90538646Y-59576704D02*
X91014836Y-59576704D01*
X90443408Y-59862419D02*
X90776741Y-58862419D01*
X90776741Y-58862419D02*
X91110074Y-59862419D01*
X91536265Y-59814800D02*
X91679122Y-59862419D01*
X91679122Y-59862419D02*
X91917217Y-59862419D01*
X91917217Y-59862419D02*
X92012455Y-59814800D01*
X92012455Y-59814800D02*
X92060074Y-59767180D01*
X92060074Y-59767180D02*
X92107693Y-59671942D01*
X92107693Y-59671942D02*
X92107693Y-59576704D01*
X92107693Y-59576704D02*
X92060074Y-59481466D01*
X92060074Y-59481466D02*
X92012455Y-59433847D01*
X92012455Y-59433847D02*
X91917217Y-59386228D01*
X91917217Y-59386228D02*
X91726741Y-59338609D01*
X91726741Y-59338609D02*
X91631503Y-59290990D01*
X91631503Y-59290990D02*
X91583884Y-59243371D01*
X91583884Y-59243371D02*
X91536265Y-59148133D01*
X91536265Y-59148133D02*
X91536265Y-59052895D01*
X91536265Y-59052895D02*
X91583884Y-58957657D01*
X91583884Y-58957657D02*
X91631503Y-58910038D01*
X91631503Y-58910038D02*
X91726741Y-58862419D01*
X91726741Y-58862419D02*
X91964836Y-58862419D01*
X91964836Y-58862419D02*
X92107693Y-58910038D01*
X93107693Y-59767180D02*
X93060074Y-59814800D01*
X93060074Y-59814800D02*
X92917217Y-59862419D01*
X92917217Y-59862419D02*
X92821979Y-59862419D01*
X92821979Y-59862419D02*
X92679122Y-59814800D01*
X92679122Y-59814800D02*
X92583884Y-59719561D01*
X92583884Y-59719561D02*
X92536265Y-59624323D01*
X92536265Y-59624323D02*
X92488646Y-59433847D01*
X92488646Y-59433847D02*
X92488646Y-59290990D01*
X92488646Y-59290990D02*
X92536265Y-59100514D01*
X92536265Y-59100514D02*
X92583884Y-59005276D01*
X92583884Y-59005276D02*
X92679122Y-58910038D01*
X92679122Y-58910038D02*
X92821979Y-58862419D01*
X92821979Y-58862419D02*
X92917217Y-58862419D01*
X92917217Y-58862419D02*
X93060074Y-58910038D01*
X93060074Y-58910038D02*
X93107693Y-58957657D01*
X94012455Y-59862419D02*
X93536265Y-59862419D01*
X93536265Y-59862419D02*
X93536265Y-58862419D01*
X98207693Y-58870038D02*
X98112455Y-58822419D01*
X98112455Y-58822419D02*
X97969598Y-58822419D01*
X97969598Y-58822419D02*
X97826741Y-58870038D01*
X97826741Y-58870038D02*
X97731503Y-58965276D01*
X97731503Y-58965276D02*
X97683884Y-59060514D01*
X97683884Y-59060514D02*
X97636265Y-59250990D01*
X97636265Y-59250990D02*
X97636265Y-59393847D01*
X97636265Y-59393847D02*
X97683884Y-59584323D01*
X97683884Y-59584323D02*
X97731503Y-59679561D01*
X97731503Y-59679561D02*
X97826741Y-59774800D01*
X97826741Y-59774800D02*
X97969598Y-59822419D01*
X97969598Y-59822419D02*
X98064836Y-59822419D01*
X98064836Y-59822419D02*
X98207693Y-59774800D01*
X98207693Y-59774800D02*
X98255312Y-59727180D01*
X98255312Y-59727180D02*
X98255312Y-59393847D01*
X98255312Y-59393847D02*
X98064836Y-59393847D01*
X98683884Y-59822419D02*
X98683884Y-58822419D01*
X98683884Y-58822419D02*
X99255312Y-59822419D01*
X99255312Y-59822419D02*
X99255312Y-58822419D01*
X99731503Y-59822419D02*
X99731503Y-58822419D01*
X99731503Y-58822419D02*
X99969598Y-58822419D01*
X99969598Y-58822419D02*
X100112455Y-58870038D01*
X100112455Y-58870038D02*
X100207693Y-58965276D01*
X100207693Y-58965276D02*
X100255312Y-59060514D01*
X100255312Y-59060514D02*
X100302931Y-59250990D01*
X100302931Y-59250990D02*
X100302931Y-59393847D01*
X100302931Y-59393847D02*
X100255312Y-59584323D01*
X100255312Y-59584323D02*
X100207693Y-59679561D01*
X100207693Y-59679561D02*
X100112455Y-59774800D01*
X100112455Y-59774800D02*
X99969598Y-59822419D01*
X99969598Y-59822419D02*
X99731503Y-59822419D01*
X94348646Y-58862419D02*
X94967693Y-58862419D01*
X94967693Y-58862419D02*
X94634360Y-59243371D01*
X94634360Y-59243371D02*
X94777217Y-59243371D01*
X94777217Y-59243371D02*
X94872455Y-59290990D01*
X94872455Y-59290990D02*
X94920074Y-59338609D01*
X94920074Y-59338609D02*
X94967693Y-59433847D01*
X94967693Y-59433847D02*
X94967693Y-59671942D01*
X94967693Y-59671942D02*
X94920074Y-59767180D01*
X94920074Y-59767180D02*
X94872455Y-59814800D01*
X94872455Y-59814800D02*
X94777217Y-59862419D01*
X94777217Y-59862419D02*
X94491503Y-59862419D01*
X94491503Y-59862419D02*
X94396265Y-59814800D01*
X94396265Y-59814800D02*
X94348646Y-59767180D01*
X95253408Y-58862419D02*
X95586741Y-59862419D01*
X95586741Y-59862419D02*
X95920074Y-58862419D01*
X96158170Y-58862419D02*
X96777217Y-58862419D01*
X96777217Y-58862419D02*
X96443884Y-59243371D01*
X96443884Y-59243371D02*
X96586741Y-59243371D01*
X96586741Y-59243371D02*
X96681979Y-59290990D01*
X96681979Y-59290990D02*
X96729598Y-59338609D01*
X96729598Y-59338609D02*
X96777217Y-59433847D01*
X96777217Y-59433847D02*
X96777217Y-59671942D01*
X96777217Y-59671942D02*
X96729598Y-59767180D01*
X96729598Y-59767180D02*
X96681979Y-59814800D01*
X96681979Y-59814800D02*
X96586741Y-59862419D01*
X96586741Y-59862419D02*
X96301027Y-59862419D01*
X96301027Y-59862419D02*
X96205789Y-59814800D01*
X96205789Y-59814800D02*
X96158170Y-59767180D01*
D11*
X92986667Y-74843200D02*
X93129524Y-74890819D01*
X93129524Y-74890819D02*
X93367619Y-74890819D01*
X93367619Y-74890819D02*
X93462857Y-74843200D01*
X93462857Y-74843200D02*
X93510476Y-74795580D01*
X93510476Y-74795580D02*
X93558095Y-74700342D01*
X93558095Y-74700342D02*
X93558095Y-74605104D01*
X93558095Y-74605104D02*
X93510476Y-74509866D01*
X93510476Y-74509866D02*
X93462857Y-74462247D01*
X93462857Y-74462247D02*
X93367619Y-74414628D01*
X93367619Y-74414628D02*
X93177143Y-74367009D01*
X93177143Y-74367009D02*
X93081905Y-74319390D01*
X93081905Y-74319390D02*
X93034286Y-74271771D01*
X93034286Y-74271771D02*
X92986667Y-74176533D01*
X92986667Y-74176533D02*
X92986667Y-74081295D01*
X92986667Y-74081295D02*
X93034286Y-73986057D01*
X93034286Y-73986057D02*
X93081905Y-73938438D01*
X93081905Y-73938438D02*
X93177143Y-73890819D01*
X93177143Y-73890819D02*
X93415238Y-73890819D01*
X93415238Y-73890819D02*
X93558095Y-73938438D01*
X93891429Y-73890819D02*
X94129524Y-74890819D01*
X94129524Y-74890819D02*
X94320000Y-74176533D01*
X94320000Y-74176533D02*
X94510476Y-74890819D01*
X94510476Y-74890819D02*
X94748572Y-73890819D01*
X95081905Y-73986057D02*
X95129524Y-73938438D01*
X95129524Y-73938438D02*
X95224762Y-73890819D01*
X95224762Y-73890819D02*
X95462857Y-73890819D01*
X95462857Y-73890819D02*
X95558095Y-73938438D01*
X95558095Y-73938438D02*
X95605714Y-73986057D01*
X95605714Y-73986057D02*
X95653333Y-74081295D01*
X95653333Y-74081295D02*
X95653333Y-74176533D01*
X95653333Y-74176533D02*
X95605714Y-74319390D01*
X95605714Y-74319390D02*
X95034286Y-74890819D01*
X95034286Y-74890819D02*
X95653333Y-74890819D01*
X73226667Y-74843200D02*
X73369524Y-74890819D01*
X73369524Y-74890819D02*
X73607619Y-74890819D01*
X73607619Y-74890819D02*
X73702857Y-74843200D01*
X73702857Y-74843200D02*
X73750476Y-74795580D01*
X73750476Y-74795580D02*
X73798095Y-74700342D01*
X73798095Y-74700342D02*
X73798095Y-74605104D01*
X73798095Y-74605104D02*
X73750476Y-74509866D01*
X73750476Y-74509866D02*
X73702857Y-74462247D01*
X73702857Y-74462247D02*
X73607619Y-74414628D01*
X73607619Y-74414628D02*
X73417143Y-74367009D01*
X73417143Y-74367009D02*
X73321905Y-74319390D01*
X73321905Y-74319390D02*
X73274286Y-74271771D01*
X73274286Y-74271771D02*
X73226667Y-74176533D01*
X73226667Y-74176533D02*
X73226667Y-74081295D01*
X73226667Y-74081295D02*
X73274286Y-73986057D01*
X73274286Y-73986057D02*
X73321905Y-73938438D01*
X73321905Y-73938438D02*
X73417143Y-73890819D01*
X73417143Y-73890819D02*
X73655238Y-73890819D01*
X73655238Y-73890819D02*
X73798095Y-73938438D01*
X74131429Y-73890819D02*
X74369524Y-74890819D01*
X74369524Y-74890819D02*
X74560000Y-74176533D01*
X74560000Y-74176533D02*
X74750476Y-74890819D01*
X74750476Y-74890819D02*
X74988572Y-73890819D01*
X75893333Y-74890819D02*
X75321905Y-74890819D01*
X75607619Y-74890819D02*
X75607619Y-73890819D01*
X75607619Y-73890819D02*
X75512381Y-74033676D01*
X75512381Y-74033676D02*
X75417143Y-74128914D01*
X75417143Y-74128914D02*
X75321905Y-74176533D01*
X112616667Y-74843200D02*
X112759524Y-74890819D01*
X112759524Y-74890819D02*
X112997619Y-74890819D01*
X112997619Y-74890819D02*
X113092857Y-74843200D01*
X113092857Y-74843200D02*
X113140476Y-74795580D01*
X113140476Y-74795580D02*
X113188095Y-74700342D01*
X113188095Y-74700342D02*
X113188095Y-74605104D01*
X113188095Y-74605104D02*
X113140476Y-74509866D01*
X113140476Y-74509866D02*
X113092857Y-74462247D01*
X113092857Y-74462247D02*
X112997619Y-74414628D01*
X112997619Y-74414628D02*
X112807143Y-74367009D01*
X112807143Y-74367009D02*
X112711905Y-74319390D01*
X112711905Y-74319390D02*
X112664286Y-74271771D01*
X112664286Y-74271771D02*
X112616667Y-74176533D01*
X112616667Y-74176533D02*
X112616667Y-74081295D01*
X112616667Y-74081295D02*
X112664286Y-73986057D01*
X112664286Y-73986057D02*
X112711905Y-73938438D01*
X112711905Y-73938438D02*
X112807143Y-73890819D01*
X112807143Y-73890819D02*
X113045238Y-73890819D01*
X113045238Y-73890819D02*
X113188095Y-73938438D01*
X113521429Y-73890819D02*
X113759524Y-74890819D01*
X113759524Y-74890819D02*
X113950000Y-74176533D01*
X113950000Y-74176533D02*
X114140476Y-74890819D01*
X114140476Y-74890819D02*
X114378572Y-73890819D01*
X114664286Y-73890819D02*
X115283333Y-73890819D01*
X115283333Y-73890819D02*
X114950000Y-74271771D01*
X114950000Y-74271771D02*
X115092857Y-74271771D01*
X115092857Y-74271771D02*
X115188095Y-74319390D01*
X115188095Y-74319390D02*
X115235714Y-74367009D01*
X115235714Y-74367009D02*
X115283333Y-74462247D01*
X115283333Y-74462247D02*
X115283333Y-74700342D01*
X115283333Y-74700342D02*
X115235714Y-74795580D01*
X115235714Y-74795580D02*
X115188095Y-74843200D01*
X115188095Y-74843200D02*
X115092857Y-74890819D01*
X115092857Y-74890819D02*
X114807143Y-74890819D01*
X114807143Y-74890819D02*
X114711905Y-74843200D01*
X114711905Y-74843200D02*
X114664286Y-74795580D01*
X99844819Y-67143333D02*
X100559104Y-67143333D01*
X100559104Y-67143333D02*
X100701961Y-67190952D01*
X100701961Y-67190952D02*
X100797200Y-67286190D01*
X100797200Y-67286190D02*
X100844819Y-67429047D01*
X100844819Y-67429047D02*
X100844819Y-67524285D01*
X99844819Y-66762380D02*
X99844819Y-66143333D01*
X99844819Y-66143333D02*
X100225771Y-66476666D01*
X100225771Y-66476666D02*
X100225771Y-66333809D01*
X100225771Y-66333809D02*
X100273390Y-66238571D01*
X100273390Y-66238571D02*
X100321009Y-66190952D01*
X100321009Y-66190952D02*
X100416247Y-66143333D01*
X100416247Y-66143333D02*
X100654342Y-66143333D01*
X100654342Y-66143333D02*
X100749580Y-66190952D01*
X100749580Y-66190952D02*
X100797200Y-66238571D01*
X100797200Y-66238571D02*
X100844819Y-66333809D01*
X100844819Y-66333809D02*
X100844819Y-66619523D01*
X100844819Y-66619523D02*
X100797200Y-66714761D01*
X100797200Y-66714761D02*
X100749580Y-66762380D01*
X92986667Y-113243200D02*
X93129524Y-113290819D01*
X93129524Y-113290819D02*
X93367619Y-113290819D01*
X93367619Y-113290819D02*
X93462857Y-113243200D01*
X93462857Y-113243200D02*
X93510476Y-113195580D01*
X93510476Y-113195580D02*
X93558095Y-113100342D01*
X93558095Y-113100342D02*
X93558095Y-113005104D01*
X93558095Y-113005104D02*
X93510476Y-112909866D01*
X93510476Y-112909866D02*
X93462857Y-112862247D01*
X93462857Y-112862247D02*
X93367619Y-112814628D01*
X93367619Y-112814628D02*
X93177143Y-112767009D01*
X93177143Y-112767009D02*
X93081905Y-112719390D01*
X93081905Y-112719390D02*
X93034286Y-112671771D01*
X93034286Y-112671771D02*
X92986667Y-112576533D01*
X92986667Y-112576533D02*
X92986667Y-112481295D01*
X92986667Y-112481295D02*
X93034286Y-112386057D01*
X93034286Y-112386057D02*
X93081905Y-112338438D01*
X93081905Y-112338438D02*
X93177143Y-112290819D01*
X93177143Y-112290819D02*
X93415238Y-112290819D01*
X93415238Y-112290819D02*
X93558095Y-112338438D01*
X93891429Y-112290819D02*
X94129524Y-113290819D01*
X94129524Y-113290819D02*
X94320000Y-112576533D01*
X94320000Y-112576533D02*
X94510476Y-113290819D01*
X94510476Y-113290819D02*
X94748572Y-112290819D01*
X95272381Y-112719390D02*
X95177143Y-112671771D01*
X95177143Y-112671771D02*
X95129524Y-112624152D01*
X95129524Y-112624152D02*
X95081905Y-112528914D01*
X95081905Y-112528914D02*
X95081905Y-112481295D01*
X95081905Y-112481295D02*
X95129524Y-112386057D01*
X95129524Y-112386057D02*
X95177143Y-112338438D01*
X95177143Y-112338438D02*
X95272381Y-112290819D01*
X95272381Y-112290819D02*
X95462857Y-112290819D01*
X95462857Y-112290819D02*
X95558095Y-112338438D01*
X95558095Y-112338438D02*
X95605714Y-112386057D01*
X95605714Y-112386057D02*
X95653333Y-112481295D01*
X95653333Y-112481295D02*
X95653333Y-112528914D01*
X95653333Y-112528914D02*
X95605714Y-112624152D01*
X95605714Y-112624152D02*
X95558095Y-112671771D01*
X95558095Y-112671771D02*
X95462857Y-112719390D01*
X95462857Y-112719390D02*
X95272381Y-112719390D01*
X95272381Y-112719390D02*
X95177143Y-112767009D01*
X95177143Y-112767009D02*
X95129524Y-112814628D01*
X95129524Y-112814628D02*
X95081905Y-112909866D01*
X95081905Y-112909866D02*
X95081905Y-113100342D01*
X95081905Y-113100342D02*
X95129524Y-113195580D01*
X95129524Y-113195580D02*
X95177143Y-113243200D01*
X95177143Y-113243200D02*
X95272381Y-113290819D01*
X95272381Y-113290819D02*
X95462857Y-113290819D01*
X95462857Y-113290819D02*
X95558095Y-113243200D01*
X95558095Y-113243200D02*
X95605714Y-113195580D01*
X95605714Y-113195580D02*
X95653333Y-113100342D01*
X95653333Y-113100342D02*
X95653333Y-112909866D01*
X95653333Y-112909866D02*
X95605714Y-112814628D01*
X95605714Y-112814628D02*
X95558095Y-112767009D01*
X95558095Y-112767009D02*
X95462857Y-112719390D01*
X112616667Y-113243200D02*
X112759524Y-113290819D01*
X112759524Y-113290819D02*
X112997619Y-113290819D01*
X112997619Y-113290819D02*
X113092857Y-113243200D01*
X113092857Y-113243200D02*
X113140476Y-113195580D01*
X113140476Y-113195580D02*
X113188095Y-113100342D01*
X113188095Y-113100342D02*
X113188095Y-113005104D01*
X113188095Y-113005104D02*
X113140476Y-112909866D01*
X113140476Y-112909866D02*
X113092857Y-112862247D01*
X113092857Y-112862247D02*
X112997619Y-112814628D01*
X112997619Y-112814628D02*
X112807143Y-112767009D01*
X112807143Y-112767009D02*
X112711905Y-112719390D01*
X112711905Y-112719390D02*
X112664286Y-112671771D01*
X112664286Y-112671771D02*
X112616667Y-112576533D01*
X112616667Y-112576533D02*
X112616667Y-112481295D01*
X112616667Y-112481295D02*
X112664286Y-112386057D01*
X112664286Y-112386057D02*
X112711905Y-112338438D01*
X112711905Y-112338438D02*
X112807143Y-112290819D01*
X112807143Y-112290819D02*
X113045238Y-112290819D01*
X113045238Y-112290819D02*
X113188095Y-112338438D01*
X113521429Y-112290819D02*
X113759524Y-113290819D01*
X113759524Y-113290819D02*
X113950000Y-112576533D01*
X113950000Y-112576533D02*
X114140476Y-113290819D01*
X114140476Y-113290819D02*
X114378572Y-112290819D01*
X114807143Y-113290819D02*
X114997619Y-113290819D01*
X114997619Y-113290819D02*
X115092857Y-113243200D01*
X115092857Y-113243200D02*
X115140476Y-113195580D01*
X115140476Y-113195580D02*
X115235714Y-113052723D01*
X115235714Y-113052723D02*
X115283333Y-112862247D01*
X115283333Y-112862247D02*
X115283333Y-112481295D01*
X115283333Y-112481295D02*
X115235714Y-112386057D01*
X115235714Y-112386057D02*
X115188095Y-112338438D01*
X115188095Y-112338438D02*
X115092857Y-112290819D01*
X115092857Y-112290819D02*
X114902381Y-112290819D01*
X114902381Y-112290819D02*
X114807143Y-112338438D01*
X114807143Y-112338438D02*
X114759524Y-112386057D01*
X114759524Y-112386057D02*
X114711905Y-112481295D01*
X114711905Y-112481295D02*
X114711905Y-112719390D01*
X114711905Y-112719390D02*
X114759524Y-112814628D01*
X114759524Y-112814628D02*
X114807143Y-112862247D01*
X114807143Y-112862247D02*
X114902381Y-112909866D01*
X114902381Y-112909866D02*
X115092857Y-112909866D01*
X115092857Y-112909866D02*
X115188095Y-112862247D01*
X115188095Y-112862247D02*
X115235714Y-112814628D01*
X115235714Y-112814628D02*
X115283333Y-112719390D01*
X114334819Y-58646666D02*
X113858628Y-58979999D01*
X114334819Y-59218094D02*
X113334819Y-59218094D01*
X113334819Y-59218094D02*
X113334819Y-58837142D01*
X113334819Y-58837142D02*
X113382438Y-58741904D01*
X113382438Y-58741904D02*
X113430057Y-58694285D01*
X113430057Y-58694285D02*
X113525295Y-58646666D01*
X113525295Y-58646666D02*
X113668152Y-58646666D01*
X113668152Y-58646666D02*
X113763390Y-58694285D01*
X113763390Y-58694285D02*
X113811009Y-58741904D01*
X113811009Y-58741904D02*
X113858628Y-58837142D01*
X113858628Y-58837142D02*
X113858628Y-59218094D01*
X114334819Y-57694285D02*
X114334819Y-58265713D01*
X114334819Y-57979999D02*
X113334819Y-57979999D01*
X113334819Y-57979999D02*
X113477676Y-58075237D01*
X113477676Y-58075237D02*
X113572914Y-58170475D01*
X113572914Y-58170475D02*
X113620533Y-58265713D01*
X112616667Y-94043200D02*
X112759524Y-94090819D01*
X112759524Y-94090819D02*
X112997619Y-94090819D01*
X112997619Y-94090819D02*
X113092857Y-94043200D01*
X113092857Y-94043200D02*
X113140476Y-93995580D01*
X113140476Y-93995580D02*
X113188095Y-93900342D01*
X113188095Y-93900342D02*
X113188095Y-93805104D01*
X113188095Y-93805104D02*
X113140476Y-93709866D01*
X113140476Y-93709866D02*
X113092857Y-93662247D01*
X113092857Y-93662247D02*
X112997619Y-93614628D01*
X112997619Y-93614628D02*
X112807143Y-93567009D01*
X112807143Y-93567009D02*
X112711905Y-93519390D01*
X112711905Y-93519390D02*
X112664286Y-93471771D01*
X112664286Y-93471771D02*
X112616667Y-93376533D01*
X112616667Y-93376533D02*
X112616667Y-93281295D01*
X112616667Y-93281295D02*
X112664286Y-93186057D01*
X112664286Y-93186057D02*
X112711905Y-93138438D01*
X112711905Y-93138438D02*
X112807143Y-93090819D01*
X112807143Y-93090819D02*
X113045238Y-93090819D01*
X113045238Y-93090819D02*
X113188095Y-93138438D01*
X113521429Y-93090819D02*
X113759524Y-94090819D01*
X113759524Y-94090819D02*
X113950000Y-93376533D01*
X113950000Y-93376533D02*
X114140476Y-94090819D01*
X114140476Y-94090819D02*
X114378572Y-93090819D01*
X115188095Y-93090819D02*
X114997619Y-93090819D01*
X114997619Y-93090819D02*
X114902381Y-93138438D01*
X114902381Y-93138438D02*
X114854762Y-93186057D01*
X114854762Y-93186057D02*
X114759524Y-93328914D01*
X114759524Y-93328914D02*
X114711905Y-93519390D01*
X114711905Y-93519390D02*
X114711905Y-93900342D01*
X114711905Y-93900342D02*
X114759524Y-93995580D01*
X114759524Y-93995580D02*
X114807143Y-94043200D01*
X114807143Y-94043200D02*
X114902381Y-94090819D01*
X114902381Y-94090819D02*
X115092857Y-94090819D01*
X115092857Y-94090819D02*
X115188095Y-94043200D01*
X115188095Y-94043200D02*
X115235714Y-93995580D01*
X115235714Y-93995580D02*
X115283333Y-93900342D01*
X115283333Y-93900342D02*
X115283333Y-93662247D01*
X115283333Y-93662247D02*
X115235714Y-93567009D01*
X115235714Y-93567009D02*
X115188095Y-93519390D01*
X115188095Y-93519390D02*
X115092857Y-93471771D01*
X115092857Y-93471771D02*
X114902381Y-93471771D01*
X114902381Y-93471771D02*
X114807143Y-93519390D01*
X114807143Y-93519390D02*
X114759524Y-93567009D01*
X114759524Y-93567009D02*
X114711905Y-93662247D01*
X73226667Y-113243200D02*
X73369524Y-113290819D01*
X73369524Y-113290819D02*
X73607619Y-113290819D01*
X73607619Y-113290819D02*
X73702857Y-113243200D01*
X73702857Y-113243200D02*
X73750476Y-113195580D01*
X73750476Y-113195580D02*
X73798095Y-113100342D01*
X73798095Y-113100342D02*
X73798095Y-113005104D01*
X73798095Y-113005104D02*
X73750476Y-112909866D01*
X73750476Y-112909866D02*
X73702857Y-112862247D01*
X73702857Y-112862247D02*
X73607619Y-112814628D01*
X73607619Y-112814628D02*
X73417143Y-112767009D01*
X73417143Y-112767009D02*
X73321905Y-112719390D01*
X73321905Y-112719390D02*
X73274286Y-112671771D01*
X73274286Y-112671771D02*
X73226667Y-112576533D01*
X73226667Y-112576533D02*
X73226667Y-112481295D01*
X73226667Y-112481295D02*
X73274286Y-112386057D01*
X73274286Y-112386057D02*
X73321905Y-112338438D01*
X73321905Y-112338438D02*
X73417143Y-112290819D01*
X73417143Y-112290819D02*
X73655238Y-112290819D01*
X73655238Y-112290819D02*
X73798095Y-112338438D01*
X74131429Y-112290819D02*
X74369524Y-113290819D01*
X74369524Y-113290819D02*
X74560000Y-112576533D01*
X74560000Y-112576533D02*
X74750476Y-113290819D01*
X74750476Y-113290819D02*
X74988572Y-112290819D01*
X75274286Y-112290819D02*
X75940952Y-112290819D01*
X75940952Y-112290819D02*
X75512381Y-113290819D01*
X73226667Y-94043200D02*
X73369524Y-94090819D01*
X73369524Y-94090819D02*
X73607619Y-94090819D01*
X73607619Y-94090819D02*
X73702857Y-94043200D01*
X73702857Y-94043200D02*
X73750476Y-93995580D01*
X73750476Y-93995580D02*
X73798095Y-93900342D01*
X73798095Y-93900342D02*
X73798095Y-93805104D01*
X73798095Y-93805104D02*
X73750476Y-93709866D01*
X73750476Y-93709866D02*
X73702857Y-93662247D01*
X73702857Y-93662247D02*
X73607619Y-93614628D01*
X73607619Y-93614628D02*
X73417143Y-93567009D01*
X73417143Y-93567009D02*
X73321905Y-93519390D01*
X73321905Y-93519390D02*
X73274286Y-93471771D01*
X73274286Y-93471771D02*
X73226667Y-93376533D01*
X73226667Y-93376533D02*
X73226667Y-93281295D01*
X73226667Y-93281295D02*
X73274286Y-93186057D01*
X73274286Y-93186057D02*
X73321905Y-93138438D01*
X73321905Y-93138438D02*
X73417143Y-93090819D01*
X73417143Y-93090819D02*
X73655238Y-93090819D01*
X73655238Y-93090819D02*
X73798095Y-93138438D01*
X74131429Y-93090819D02*
X74369524Y-94090819D01*
X74369524Y-94090819D02*
X74560000Y-93376533D01*
X74560000Y-93376533D02*
X74750476Y-94090819D01*
X74750476Y-94090819D02*
X74988572Y-93090819D01*
X75798095Y-93424152D02*
X75798095Y-94090819D01*
X75560000Y-93043200D02*
X75321905Y-93757485D01*
X75321905Y-93757485D02*
X75940952Y-93757485D01*
X114334819Y-67606666D02*
X113858628Y-67939999D01*
X114334819Y-68178094D02*
X113334819Y-68178094D01*
X113334819Y-68178094D02*
X113334819Y-67797142D01*
X113334819Y-67797142D02*
X113382438Y-67701904D01*
X113382438Y-67701904D02*
X113430057Y-67654285D01*
X113430057Y-67654285D02*
X113525295Y-67606666D01*
X113525295Y-67606666D02*
X113668152Y-67606666D01*
X113668152Y-67606666D02*
X113763390Y-67654285D01*
X113763390Y-67654285D02*
X113811009Y-67701904D01*
X113811009Y-67701904D02*
X113858628Y-67797142D01*
X113858628Y-67797142D02*
X113858628Y-68178094D01*
X113430057Y-67225713D02*
X113382438Y-67178094D01*
X113382438Y-67178094D02*
X113334819Y-67082856D01*
X113334819Y-67082856D02*
X113334819Y-66844761D01*
X113334819Y-66844761D02*
X113382438Y-66749523D01*
X113382438Y-66749523D02*
X113430057Y-66701904D01*
X113430057Y-66701904D02*
X113525295Y-66654285D01*
X113525295Y-66654285D02*
X113620533Y-66654285D01*
X113620533Y-66654285D02*
X113763390Y-66701904D01*
X113763390Y-66701904D02*
X114334819Y-67273332D01*
X114334819Y-67273332D02*
X114334819Y-66654285D01*
X92986667Y-94043200D02*
X93129524Y-94090819D01*
X93129524Y-94090819D02*
X93367619Y-94090819D01*
X93367619Y-94090819D02*
X93462857Y-94043200D01*
X93462857Y-94043200D02*
X93510476Y-93995580D01*
X93510476Y-93995580D02*
X93558095Y-93900342D01*
X93558095Y-93900342D02*
X93558095Y-93805104D01*
X93558095Y-93805104D02*
X93510476Y-93709866D01*
X93510476Y-93709866D02*
X93462857Y-93662247D01*
X93462857Y-93662247D02*
X93367619Y-93614628D01*
X93367619Y-93614628D02*
X93177143Y-93567009D01*
X93177143Y-93567009D02*
X93081905Y-93519390D01*
X93081905Y-93519390D02*
X93034286Y-93471771D01*
X93034286Y-93471771D02*
X92986667Y-93376533D01*
X92986667Y-93376533D02*
X92986667Y-93281295D01*
X92986667Y-93281295D02*
X93034286Y-93186057D01*
X93034286Y-93186057D02*
X93081905Y-93138438D01*
X93081905Y-93138438D02*
X93177143Y-93090819D01*
X93177143Y-93090819D02*
X93415238Y-93090819D01*
X93415238Y-93090819D02*
X93558095Y-93138438D01*
X93891429Y-93090819D02*
X94129524Y-94090819D01*
X94129524Y-94090819D02*
X94320000Y-93376533D01*
X94320000Y-93376533D02*
X94510476Y-94090819D01*
X94510476Y-94090819D02*
X94748572Y-93090819D01*
X95605714Y-93090819D02*
X95129524Y-93090819D01*
X95129524Y-93090819D02*
X95081905Y-93567009D01*
X95081905Y-93567009D02*
X95129524Y-93519390D01*
X95129524Y-93519390D02*
X95224762Y-93471771D01*
X95224762Y-93471771D02*
X95462857Y-93471771D01*
X95462857Y-93471771D02*
X95558095Y-93519390D01*
X95558095Y-93519390D02*
X95605714Y-93567009D01*
X95605714Y-93567009D02*
X95653333Y-93662247D01*
X95653333Y-93662247D02*
X95653333Y-93900342D01*
X95653333Y-93900342D02*
X95605714Y-93995580D01*
X95605714Y-93995580D02*
X95558095Y-94043200D01*
X95558095Y-94043200D02*
X95462857Y-94090819D01*
X95462857Y-94090819D02*
X95224762Y-94090819D01*
X95224762Y-94090819D02*
X95129524Y-94043200D01*
X95129524Y-94043200D02*
X95081905Y-93995580D01*
D12*
%TO.C,SW2*%
X87335000Y-75325000D02*
X101305000Y-75325000D01*
X87335000Y-89295000D02*
X87335000Y-75325000D01*
X101305000Y-75325000D02*
X101305000Y-89295000D01*
X101305000Y-89295000D02*
X87335000Y-89295000D01*
%TO.C,SW1*%
X67575000Y-75325000D02*
X81545000Y-75325000D01*
X67575000Y-89295000D02*
X67575000Y-75325000D01*
X81545000Y-75325000D02*
X81545000Y-89295000D01*
X81545000Y-89295000D02*
X67575000Y-89295000D01*
%TO.C,SW3*%
X106965000Y-75325000D02*
X120935000Y-75325000D01*
X106965000Y-89295000D02*
X106965000Y-75325000D01*
X120935000Y-75325000D02*
X120935000Y-89295000D01*
X120935000Y-89295000D02*
X106965000Y-89295000D01*
%TO.C,J3*%
X89170000Y-63865000D02*
X89170000Y-66525000D01*
X89170000Y-66525000D02*
X99450000Y-66525000D01*
X90120000Y-63467929D02*
X90120000Y-63865000D01*
X90120000Y-72525000D02*
X90120000Y-66525000D01*
X90880000Y-63467929D02*
X90880000Y-63865000D01*
X90880000Y-66525000D02*
X90880000Y-72525000D01*
X90880000Y-72525000D02*
X90120000Y-72525000D01*
X91770000Y-63865000D02*
X91770000Y-66525000D01*
X92660000Y-63467929D02*
X92660000Y-63865000D01*
X92660000Y-72525000D02*
X92660000Y-66525000D01*
X93420000Y-63467929D02*
X93420000Y-63865000D01*
X93420000Y-66525000D02*
X93420000Y-72525000D01*
X93420000Y-72525000D02*
X92660000Y-72525000D01*
X94310000Y-63865000D02*
X94310000Y-66525000D01*
X95200000Y-63467929D02*
X95200000Y-63865000D01*
X95200000Y-72525000D02*
X95200000Y-66525000D01*
X95960000Y-63467929D02*
X95960000Y-63865000D01*
X95960000Y-66525000D02*
X95960000Y-72525000D01*
X95960000Y-72525000D02*
X95200000Y-72525000D01*
X96850000Y-63865000D02*
X96850000Y-66525000D01*
X97740000Y-63535000D02*
X97740000Y-63865000D01*
X97740000Y-72525000D02*
X97740000Y-66525000D01*
X97840000Y-66525000D02*
X97840000Y-72525000D01*
X97960000Y-66525000D02*
X97960000Y-72525000D01*
X98080000Y-66525000D02*
X98080000Y-72525000D01*
X98120000Y-61155000D02*
X99390000Y-61155000D01*
X98200000Y-66525000D02*
X98200000Y-72525000D01*
X98320000Y-66525000D02*
X98320000Y-72525000D01*
X98440000Y-66525000D02*
X98440000Y-72525000D01*
X98500000Y-63535000D02*
X98500000Y-63865000D01*
X98500000Y-66525000D02*
X98500000Y-72525000D01*
X98500000Y-72525000D02*
X97740000Y-72525000D01*
X99390000Y-61155000D02*
X99390000Y-62425000D01*
X99450000Y-63865000D02*
X89170000Y-63865000D01*
X99450000Y-66525000D02*
X99450000Y-63865000D01*
%TO.C,SW8*%
X87335000Y-113725000D02*
X101305000Y-113725000D01*
X87335000Y-127695000D02*
X87335000Y-113725000D01*
X101305000Y-113725000D02*
X101305000Y-127695000D01*
X101305000Y-127695000D02*
X87335000Y-127695000D01*
%TO.C,SW9*%
X106965000Y-113725000D02*
X120935000Y-113725000D01*
X106965000Y-127695000D02*
X106965000Y-113725000D01*
X120935000Y-113725000D02*
X120935000Y-127695000D01*
X120935000Y-127695000D02*
X106965000Y-127695000D01*
%TO.C,R1*%
X111040000Y-56560000D02*
X111040000Y-60400000D01*
X112880000Y-56560000D02*
X112880000Y-60400000D01*
%TO.C,SW6*%
X106965000Y-94525000D02*
X120935000Y-94525000D01*
X106965000Y-108495000D02*
X106965000Y-94525000D01*
X120935000Y-94525000D02*
X120935000Y-108495000D01*
X120935000Y-108495000D02*
X106965000Y-108495000D01*
%TO.C,SW7*%
X67575000Y-113725000D02*
X81545000Y-113725000D01*
X67575000Y-127695000D02*
X67575000Y-113725000D01*
X81545000Y-113725000D02*
X81545000Y-127695000D01*
X81545000Y-127695000D02*
X67575000Y-127695000D01*
%TO.C,SW4*%
X67575000Y-94525000D02*
X81545000Y-94525000D01*
X67575000Y-108495000D02*
X67575000Y-94525000D01*
X81545000Y-94525000D02*
X81545000Y-108495000D01*
X81545000Y-108495000D02*
X67575000Y-108495000D01*
%TO.C,R2*%
X111040000Y-65520000D02*
X111040000Y-69360000D01*
X112880000Y-65520000D02*
X112880000Y-69360000D01*
%TO.C,SW5*%
X87335000Y-94525000D02*
X101305000Y-94525000D01*
X87335000Y-108495000D02*
X87335000Y-94525000D01*
X101305000Y-94525000D02*
X101305000Y-108495000D01*
X101305000Y-108495000D02*
X87335000Y-108495000D01*
%TD*%
M02*
