%TF.GenerationSoftware,KiCad,Pcbnew,8.0.3*%
%TF.CreationDate,2024-07-08T01:17:26+08:00*%
%TF.ProjectId,First_pcb,46697273-745f-4706-9362-2e6b69636164,rev?*%
%TF.SameCoordinates,Original*%
%TF.FileFunction,Copper,L1,Top*%
%TF.FilePolarity,Positive*%
%FSLAX46Y46*%
G04 Gerber Fmt 4.6, Leading zero omitted, Abs format (unit mm)*
G04 Created by KiCad (PCBNEW 8.0.3) date 2024-07-08 01:17:26*
%MOMM*%
%LPD*%
G01*
G04 APERTURE LIST*
G04 Aperture macros list*
%AMRoundRect*
0 Rectangle with rounded corners*
0 $1 Rounding radius*
0 $2 $3 $4 $5 $6 $7 $8 $9 X,Y pos of 4 corners*
0 Add a 4 corners polygon primitive as box body*
4,1,4,$2,$3,$4,$5,$6,$7,$8,$9,$2,$3,0*
0 Add four circle primitives for the rounded corners*
1,1,$1+$1,$2,$3*
1,1,$1+$1,$4,$5*
1,1,$1+$1,$6,$7*
1,1,$1+$1,$8,$9*
0 Add four rect primitives between the rounded corners*
20,1,$1+$1,$2,$3,$4,$5,0*
20,1,$1+$1,$4,$5,$6,$7,0*
20,1,$1+$1,$6,$7,$8,$9,0*
20,1,$1+$1,$8,$9,$2,$3,0*%
G04 Aperture macros list end*
%TA.AperFunction,SMDPad,CuDef*%
%ADD10RoundRect,0.237500X0.237500X-0.287500X0.237500X0.287500X-0.237500X0.287500X-0.237500X-0.287500X0*%
%TD*%
%TA.AperFunction,ComponentPad*%
%ADD11C,2.000000*%
%TD*%
%TA.AperFunction,SMDPad,CuDef*%
%ADD12RoundRect,0.250000X0.400000X1.075000X-0.400000X1.075000X-0.400000X-1.075000X0.400000X-1.075000X0*%
%TD*%
%TA.AperFunction,SMDPad,CuDef*%
%ADD13RoundRect,0.250000X-0.400000X-1.075000X0.400000X-1.075000X0.400000X1.075000X-0.400000X1.075000X0*%
%TD*%
%TA.AperFunction,ComponentPad*%
%ADD14R,1.700000X1.700000*%
%TD*%
%TA.AperFunction,ComponentPad*%
%ADD15O,1.700000X1.700000*%
%TD*%
%TA.AperFunction,ComponentPad*%
%ADD16RoundRect,0.250000X1.800000X-1.330000X1.800000X1.330000X-1.800000X1.330000X-1.800000X-1.330000X0*%
%TD*%
%TA.AperFunction,ComponentPad*%
%ADD17O,4.100000X3.160000*%
%TD*%
%TA.AperFunction,SMDPad,CuDef*%
%ADD18RoundRect,0.250000X1.075000X-0.400000X1.075000X0.400000X-1.075000X0.400000X-1.075000X-0.400000X0*%
%TD*%
%TA.AperFunction,SMDPad,CuDef*%
%ADD19R,1.500000X1.000000*%
%TD*%
%TA.AperFunction,Conductor*%
%ADD20C,0.200000*%
%TD*%
G04 APERTURE END LIST*
D10*
%TO.P,D3,1,K*%
%TO.N,GND*%
X112500000Y-99200000D03*
%TO.P,D3,2,A*%
%TO.N,Net-(D3-A)*%
X112500000Y-97450000D03*
%TD*%
D11*
%TO.P,SW1,1,1*%
%TO.N,/15*%
X153900000Y-59500000D03*
X153900000Y-53000000D03*
%TO.P,SW1,2,2*%
%TO.N,/3.3V*%
X158400000Y-59500000D03*
X158400000Y-53000000D03*
%TD*%
%TO.P,SW2,1,1*%
%TO.N,/35*%
X153900000Y-71500000D03*
X153900000Y-65000000D03*
%TO.P,SW2,2,2*%
%TO.N,/3.3V*%
X158400000Y-71500000D03*
X158400000Y-65000000D03*
%TD*%
D12*
%TO.P,R7,1*%
%TO.N,Net-(D4-RA)*%
X147650000Y-103200000D03*
%TO.P,R7,2*%
%TO.N,/39*%
X144550000Y-103200000D03*
%TD*%
D13*
%TO.P,R4,1*%
%TO.N,/2*%
X125150000Y-91600000D03*
%TO.P,R4,2*%
%TO.N,Net-(D1-A)*%
X128250000Y-91600000D03*
%TD*%
D14*
%TO.P,J2,1,Pin_1*%
%TO.N,/RESET*%
X108550000Y-43990000D03*
D15*
%TO.P,J2,2,Pin_2*%
%TO.N,/3.3V*%
X108550000Y-46530000D03*
%TO.P,J2,3,Pin_3*%
%TO.N,/nothing*%
X108550000Y-49070000D03*
%TO.P,J2,4,Pin_4*%
%TO.N,GND*%
X108550000Y-51610000D03*
%TO.P,J2,5,Pin_5*%
%TO.N,/18*%
X108550000Y-54150000D03*
%TO.P,J2,6,Pin_6*%
%TO.N,/23*%
X108550000Y-56690000D03*
%TO.P,J2,7,Pin_7*%
%TO.N,/19*%
X108550000Y-59230000D03*
%TO.P,J2,8,Pin_8*%
%TO.N,/22*%
X108550000Y-61770000D03*
%TO.P,J2,9,Pin_9*%
%TO.N,/21*%
X108550000Y-64310000D03*
%TO.P,J2,10,Pin_10*%
%TO.N,/2*%
X108550000Y-66850000D03*
%TO.P,J2,11,Pin_11*%
%TO.N,/13*%
X108550000Y-69390000D03*
%TO.P,J2,12,Pin_12*%
%TO.N,/14*%
X108550000Y-71930000D03*
%TO.P,J2,13,Pin_13*%
%TO.N,/0*%
X108550000Y-74470000D03*
%TO.P,J2,14,Pin_14*%
%TO.N,/26*%
X108550000Y-77010000D03*
%TO.P,J2,15,Pin_15*%
%TO.N,/25*%
X108550000Y-79550000D03*
%TO.P,J2,16,Pin_16*%
%TO.N,/1*%
X108550000Y-82090000D03*
%TO.P,J2,17,Pin_17*%
%TO.N,/3*%
X108550000Y-84630000D03*
%TD*%
D12*
%TO.P,R9,1*%
%TO.N,Net-(D4-BA)*%
X147600000Y-97200000D03*
%TO.P,R9,2*%
%TO.N,/12*%
X144500000Y-97200000D03*
%TD*%
D10*
%TO.P,D1,1,K*%
%TO.N,GND*%
X126700000Y-99200000D03*
%TO.P,D1,2,A*%
%TO.N,Net-(D1-A)*%
X126700000Y-97450000D03*
%TD*%
D16*
%TO.P,J5,1,Pin_1*%
%TO.N,/3.3V*%
X95455000Y-98260000D03*
D17*
%TO.P,J5,2,Pin_2*%
%TO.N,/Vcc*%
X95455000Y-94300000D03*
%TO.P,J5,3,Pin_3*%
%TO.N,GND*%
X95455000Y-90340000D03*
%TD*%
D13*
%TO.P,R6,1*%
%TO.N,/14*%
X110900000Y-91600000D03*
%TO.P,R6,2*%
%TO.N,Net-(D3-A)*%
X114000000Y-91600000D03*
%TD*%
D10*
%TO.P,D2,1,K*%
%TO.N,GND*%
X119300000Y-99200000D03*
%TO.P,D2,2,A*%
%TO.N,Net-(D2-A)*%
X119300000Y-97450000D03*
%TD*%
D18*
%TO.P,R8,1*%
%TO.N,Net-(D4-GA)*%
X159500000Y-104450000D03*
%TO.P,R8,2*%
%TO.N,/36*%
X159500000Y-101350000D03*
%TD*%
D12*
%TO.P,R3,1*%
%TO.N,/34*%
X147950000Y-77500000D03*
%TO.P,R3,2*%
%TO.N,GND*%
X144850000Y-77500000D03*
%TD*%
D11*
%TO.P,SW3,1,1*%
%TO.N,/34*%
X153900000Y-83100000D03*
X153900000Y-76600000D03*
%TO.P,SW3,2,2*%
%TO.N,/3.3V*%
X158400000Y-83100000D03*
X158400000Y-76600000D03*
%TD*%
D14*
%TO.P,J3,1,Pin_1*%
%TO.N,/RESET*%
X101050000Y-44040000D03*
D15*
%TO.P,J3,2,Pin_2*%
%TO.N,/3.3V*%
X101050000Y-46580000D03*
%TO.P,J3,3,Pin_3*%
%TO.N,/nothing*%
X101050000Y-49120000D03*
%TO.P,J3,4,Pin_4*%
%TO.N,GND*%
X101050000Y-51660000D03*
%TO.P,J3,5,Pin_5*%
%TO.N,/18*%
X101050000Y-54200000D03*
%TO.P,J3,6,Pin_6*%
%TO.N,/23*%
X101050000Y-56740000D03*
%TO.P,J3,7,Pin_7*%
%TO.N,/19*%
X101050000Y-59280000D03*
%TO.P,J3,8,Pin_8*%
%TO.N,/22*%
X101050000Y-61820000D03*
%TO.P,J3,9,Pin_9*%
%TO.N,/21*%
X101050000Y-64360000D03*
%TO.P,J3,10,Pin_10*%
%TO.N,/2*%
X101050000Y-66900000D03*
%TO.P,J3,11,Pin_11*%
%TO.N,/13*%
X101050000Y-69440000D03*
%TO.P,J3,12,Pin_12*%
%TO.N,/14*%
X101050000Y-71980000D03*
%TO.P,J3,13,Pin_13*%
%TO.N,/0*%
X101050000Y-74520000D03*
%TO.P,J3,14,Pin_14*%
%TO.N,/26*%
X101050000Y-77060000D03*
%TO.P,J3,15,Pin_15*%
%TO.N,/25*%
X101050000Y-79600000D03*
%TO.P,J3,16,Pin_16*%
%TO.N,/1*%
X101050000Y-82140000D03*
%TO.P,J3,17,Pin_17*%
%TO.N,/3*%
X101050000Y-84680000D03*
%TD*%
D13*
%TO.P,R5,1*%
%TO.N,/13*%
X117800000Y-91600000D03*
%TO.P,R5,2*%
%TO.N,Net-(D2-A)*%
X120900000Y-91600000D03*
%TD*%
D12*
%TO.P,R1,1*%
%TO.N,/15*%
X148050000Y-57900000D03*
%TO.P,R1,2*%
%TO.N,GND*%
X144950000Y-57900000D03*
%TD*%
D14*
%TO.P,J1,1,Pin_1*%
%TO.N,/Vcc*%
X131400000Y-51640000D03*
D15*
%TO.P,J1,2,Pin_2*%
%TO.N,/3.3V*%
X131400000Y-54180000D03*
%TO.P,J1,3,Pin_3*%
%TO.N,GND*%
X131400000Y-56720000D03*
%TO.P,J1,4,Pin_4*%
%TO.N,/22*%
X131400000Y-59260000D03*
%TO.P,J1,5,Pin_5*%
%TO.N,/21*%
X131400000Y-61800000D03*
%TO.P,J1,6,Pin_6*%
%TO.N,/15*%
X131400000Y-64340000D03*
%TO.P,J1,7,Pin_7*%
%TO.N,/35*%
X131400000Y-66880000D03*
%TO.P,J1,8,Pin_8*%
%TO.N,/34*%
X131400000Y-69420000D03*
%TO.P,J1,9,Pin_9*%
%TO.N,/39*%
X131400000Y-71960000D03*
%TO.P,J1,10,Pin_10*%
%TO.N,/36*%
X131400000Y-74500000D03*
%TO.P,J1,11,Pin_11*%
%TO.N,/12*%
X131400000Y-77040000D03*
%TO.P,J1,12,Pin_12*%
%TO.N,/4*%
X131400000Y-79580000D03*
%TO.P,J1,13,Pin_13*%
%TO.N,/16*%
X131400000Y-82120000D03*
%TO.P,J1,14,Pin_14*%
%TO.N,/17*%
X131400000Y-84660000D03*
%TD*%
D14*
%TO.P,J4,1,Pin_1*%
%TO.N,/Vcc*%
X138900000Y-51640000D03*
D15*
%TO.P,J4,2,Pin_2*%
%TO.N,/3.3V*%
X138900000Y-54180000D03*
%TO.P,J4,3,Pin_3*%
%TO.N,GND*%
X138900000Y-56720000D03*
%TO.P,J4,4,Pin_4*%
%TO.N,/22*%
X138900000Y-59260000D03*
%TO.P,J4,5,Pin_5*%
%TO.N,/21*%
X138900000Y-61800000D03*
%TO.P,J4,6,Pin_6*%
%TO.N,/15*%
X138900000Y-64340000D03*
%TO.P,J4,7,Pin_7*%
%TO.N,/35*%
X138900000Y-66880000D03*
%TO.P,J4,8,Pin_8*%
%TO.N,/34*%
X138900000Y-69420000D03*
%TO.P,J4,9,Pin_9*%
%TO.N,/39*%
X138900000Y-71960000D03*
%TO.P,J4,10,Pin_10*%
%TO.N,/36*%
X138900000Y-74500000D03*
%TO.P,J4,11,Pin_11*%
%TO.N,/12*%
X138900000Y-77040000D03*
%TO.P,J4,12,Pin_12*%
%TO.N,/4*%
X138900000Y-79580000D03*
%TO.P,J4,13,Pin_13*%
%TO.N,/16*%
X138900000Y-82120000D03*
%TO.P,J4,14,Pin_14*%
%TO.N,/17*%
X138900000Y-84660000D03*
%TD*%
D19*
%TO.P,D4,1,BA*%
%TO.N,Net-(D4-BA)*%
X152800000Y-97200000D03*
%TO.P,D4,2,RA*%
%TO.N,Net-(D4-RA)*%
X152800000Y-98600000D03*
%TO.P,D4,3,GA*%
%TO.N,Net-(D4-GA)*%
X156300000Y-98600000D03*
%TO.P,D4,4,K*%
%TO.N,GND*%
X156300000Y-97200000D03*
%TD*%
D12*
%TO.P,R2,1*%
%TO.N,/35*%
X147950000Y-63800000D03*
%TO.P,R2,2*%
%TO.N,GND*%
X144850000Y-63800000D03*
%TD*%
D20*
%TO.N,GND*%
X95455000Y-90340000D02*
X95455000Y-57255000D01*
X95455000Y-57255000D02*
X101050000Y-51660000D01*
%TO.N,Net-(D1-A)*%
X128250000Y-91600000D02*
X128250000Y-93850000D01*
X126700000Y-95400000D02*
X126700000Y-97450000D01*
X128250000Y-93850000D02*
X126700000Y-95400000D01*
%TO.N,GND*%
X101100000Y-51610000D02*
X101050000Y-51660000D01*
X119275000Y-99175000D02*
X119300000Y-99150000D01*
X144950000Y-63700000D02*
X144850000Y-63800000D01*
X143770000Y-56720000D02*
X138900000Y-56720000D01*
X144950000Y-57900000D02*
X143770000Y-56720000D01*
X126650000Y-99150000D02*
X126700000Y-99200000D01*
X108550000Y-51610000D02*
X101100000Y-51610000D01*
X144850000Y-82950000D02*
X156300000Y-94400000D01*
X126700000Y-99200000D02*
X128800000Y-99200000D01*
X156300000Y-94400000D02*
X156300000Y-97200000D01*
X128800000Y-99200000D02*
X129900000Y-98100000D01*
X128400000Y-88500000D02*
X118131371Y-88500000D01*
X112100000Y-55160000D02*
X108550000Y-51610000D01*
X131400000Y-56720000D02*
X138900000Y-56720000D01*
X119300000Y-99150000D02*
X126650000Y-99150000D01*
X144850000Y-77500000D02*
X144850000Y-82950000D01*
X144850000Y-63800000D02*
X144850000Y-77500000D01*
X144950000Y-57900000D02*
X144950000Y-63700000D01*
X129900000Y-90000000D02*
X128400000Y-88500000D01*
X112100000Y-82468628D02*
X112100000Y-55160000D01*
X129900000Y-98100000D02*
X129900000Y-90000000D01*
X118131371Y-88500000D02*
X112100000Y-82468628D01*
X112500000Y-99175000D02*
X119275000Y-99175000D01*
%TO.N,Net-(D2-A)*%
X120900000Y-93800000D02*
X119300000Y-95400000D01*
X120900000Y-91600000D02*
X120900000Y-93800000D01*
X119300000Y-95400000D02*
X119300000Y-97400000D01*
%TO.N,Net-(D3-A)*%
X114000000Y-93800000D02*
X112500000Y-95300000D01*
X112500000Y-95300000D02*
X112500000Y-97425000D01*
X114000000Y-91600000D02*
X114000000Y-93800000D01*
%TO.N,Net-(D4-BA)*%
X147600000Y-97200000D02*
X152800000Y-97200000D01*
%TO.N,Net-(D4-RA)*%
X152250000Y-98600000D02*
X152800000Y-98600000D01*
X147650000Y-103200000D02*
X152250000Y-98600000D01*
%TO.N,/12*%
X144550000Y-103200000D02*
X141600000Y-100250000D01*
X141600000Y-79740000D02*
X138900000Y-77040000D01*
X131400000Y-77040000D02*
X138900000Y-77040000D01*
X141600000Y-100250000D02*
X141600000Y-79740000D01*
%TO.N,/34*%
X162365685Y-74600000D02*
X162600000Y-74365685D01*
X127400000Y-50368628D02*
X127400000Y-65420000D01*
X130368628Y-47400000D02*
X127400000Y-50368628D01*
X148300000Y-77500000D02*
X147950000Y-77500000D01*
X156365686Y-47400000D02*
X130368628Y-47400000D01*
X127400000Y-65420000D02*
X131400000Y-69420000D01*
X138900000Y-69420000D02*
X131400000Y-69420000D01*
X153900000Y-83100000D02*
X148300000Y-77500000D01*
X162600000Y-53634314D02*
X156365686Y-47400000D01*
X162600000Y-74365685D02*
X162600000Y-53634314D01*
X153900000Y-76600000D02*
X155900000Y-74600000D01*
X155900000Y-74600000D02*
X162365685Y-74600000D01*
%TO.N,/35*%
X147950000Y-63800000D02*
X149150000Y-65000000D01*
X162200000Y-74200000D02*
X162200000Y-53800000D01*
X149150000Y-65000000D02*
X153900000Y-65000000D01*
X130534314Y-47800000D02*
X127800000Y-50534314D01*
X127800000Y-50534314D02*
X127800000Y-63280000D01*
X156600000Y-74200000D02*
X162200000Y-74200000D01*
X127800000Y-63280000D02*
X131400000Y-66880000D01*
X131400000Y-66880000D02*
X138900000Y-66880000D01*
X162200000Y-53800000D02*
X156200000Y-47800000D01*
X156200000Y-47800000D02*
X130534314Y-47800000D01*
X153900000Y-71500000D02*
X156600000Y-74200000D01*
%TO.N,/15*%
X130700000Y-48200000D02*
X128200000Y-50700000D01*
X153900000Y-59500000D02*
X149650000Y-59500000D01*
X149650000Y-59500000D02*
X148050000Y-57900000D01*
X128200000Y-61140000D02*
X131400000Y-64340000D01*
X149100000Y-48200000D02*
X130700000Y-48200000D01*
X138900000Y-64340000D02*
X131400000Y-64340000D01*
X153900000Y-53000000D02*
X149100000Y-48200000D01*
X128200000Y-50700000D02*
X128200000Y-61140000D01*
%TO.N,/17*%
X138900000Y-84660000D02*
X131400000Y-84660000D01*
%TO.N,/3.3V*%
X139750000Y-55030000D02*
X153930000Y-55030000D01*
X138900000Y-54180000D02*
X139750000Y-55030000D01*
X153930000Y-55030000D02*
X158400000Y-59500000D01*
X156600000Y-65000000D02*
X150700000Y-70900000D01*
X150700000Y-70900000D02*
X150700000Y-79300000D01*
X158400000Y-59500000D02*
X158400000Y-65000000D01*
X108550000Y-46530000D02*
X101100000Y-46530000D01*
X101100000Y-46530000D02*
X101050000Y-46580000D01*
X131400000Y-54180000D02*
X138900000Y-54180000D01*
X155700000Y-79300000D02*
X158400000Y-76600000D01*
X150700000Y-79300000D02*
X155700000Y-79300000D01*
X158400000Y-65000000D02*
X156600000Y-65000000D01*
%TO.N,/36*%
X130100000Y-47000000D02*
X156531372Y-47000000D01*
X127000000Y-70100000D02*
X131400000Y-74500000D01*
X160400000Y-100450000D02*
X159500000Y-101350000D01*
X138900000Y-74500000D02*
X131400000Y-74500000D01*
X163000000Y-53468628D02*
X163000000Y-74531371D01*
X144500000Y-97200000D02*
X142000000Y-94700000D01*
X160400000Y-77131371D02*
X160400000Y-100450000D01*
X156531372Y-47000000D02*
X163000000Y-53468628D01*
X163000000Y-74531371D02*
X160400000Y-77131371D01*
X127000000Y-50100000D02*
X130100000Y-47000000D01*
X142000000Y-77600000D02*
X138900000Y-74500000D01*
X127000000Y-50100000D02*
X127000000Y-70100000D01*
X142000000Y-94700000D02*
X142000000Y-77600000D01*
%TO.N,/16*%
X131400000Y-82120000D02*
X138900000Y-82120000D01*
%TO.N,/Vcc*%
X131400000Y-51640000D02*
X138900000Y-51640000D01*
%TO.N,/21*%
X131400000Y-61800000D02*
X138900000Y-61800000D01*
X101050000Y-64360000D02*
X108500000Y-64360000D01*
X108500000Y-64360000D02*
X108550000Y-64310000D01*
%TO.N,/22*%
X101050000Y-61820000D02*
X108500000Y-61820000D01*
X138900000Y-59260000D02*
X131400000Y-59260000D01*
X108500000Y-61820000D02*
X108550000Y-61770000D01*
%TO.N,/39*%
X131400000Y-71960000D02*
X138900000Y-71960000D01*
%TO.N,/4*%
X138900000Y-79580000D02*
X131400000Y-79580000D01*
%TO.N,/13*%
X117800000Y-89300000D02*
X111300000Y-82800000D01*
X101050000Y-69440000D02*
X108500000Y-69440000D01*
X111300000Y-72140000D02*
X108550000Y-69390000D01*
X111300000Y-82800000D02*
X111300000Y-72140000D01*
X117800000Y-91600000D02*
X117800000Y-89300000D01*
X108500000Y-69440000D02*
X108550000Y-69390000D01*
%TO.N,/26*%
X101050000Y-77060000D02*
X108500000Y-77060000D01*
X108500000Y-77060000D02*
X108550000Y-77010000D01*
%TO.N,/1*%
X108500000Y-82140000D02*
X108550000Y-82090000D01*
X101050000Y-82140000D02*
X108500000Y-82140000D01*
%TO.N,/RESET*%
X108500000Y-44040000D02*
X108550000Y-43990000D01*
X101050000Y-44040000D02*
X108500000Y-44040000D01*
%TO.N,/0*%
X108500000Y-74520000D02*
X108550000Y-74470000D01*
X101050000Y-74520000D02*
X108500000Y-74520000D01*
%TO.N,/nothing*%
X108500000Y-49120000D02*
X108550000Y-49070000D01*
X101050000Y-49120000D02*
X108500000Y-49120000D01*
%TO.N,/14*%
X110900000Y-74280000D02*
X108550000Y-71930000D01*
X108500000Y-71980000D02*
X108550000Y-71930000D01*
X101050000Y-71980000D02*
X108500000Y-71980000D01*
X110900000Y-91600000D02*
X110900000Y-74280000D01*
%TO.N,/3*%
X108500000Y-84680000D02*
X108550000Y-84630000D01*
X101050000Y-84680000D02*
X108500000Y-84680000D01*
%TO.N,/19*%
X108500000Y-59280000D02*
X108550000Y-59230000D01*
X101050000Y-59280000D02*
X108500000Y-59280000D01*
%TO.N,/23*%
X101100000Y-56690000D02*
X101050000Y-56740000D01*
X108550000Y-56690000D02*
X101100000Y-56690000D01*
%TO.N,/25*%
X101050000Y-79600000D02*
X108500000Y-79600000D01*
X108500000Y-79600000D02*
X108550000Y-79550000D01*
%TO.N,/2*%
X108500000Y-66900000D02*
X108550000Y-66850000D01*
X122450000Y-88900000D02*
X117965685Y-88900000D01*
X101050000Y-66900000D02*
X108500000Y-66900000D01*
X111700000Y-82634314D02*
X111700000Y-70000000D01*
X125150000Y-91600000D02*
X122450000Y-88900000D01*
X111700000Y-70000000D02*
X108550000Y-66850000D01*
X117965685Y-88900000D02*
X111700000Y-82634314D01*
%TO.N,/18*%
X108500000Y-54200000D02*
X108550000Y-54150000D01*
X101050000Y-54200000D02*
X108500000Y-54200000D01*
%TO.N,Net-(D4-GA)*%
X159500000Y-104450000D02*
X156300000Y-104450000D01*
X156300000Y-104450000D02*
X156300000Y-98600000D01*
%TD*%
M02*
