M48
; DRILL file {KiCad 8.0.3} date 2024-07-18T02:13:45+0800
; FORMAT={-:-/ absolute / metric / decimal}
; #@! TF.CreationDate,2024-07-18T02:13:45+08:00
; #@! TF.GenerationSoftware,Kicad,Pcbnew,8.0.3
; #@! TF.FileFunction,Plated,1,2,PTH
FMAT,2
METRIC
; #@! TA.AperFunction,Plated,PTH,ComponentDrill
T1C0.700
; #@! TA.AperFunction,Plated,PTH,ComponentDrill
T2C1.000
; #@! TA.AperFunction,Plated,PTH,ComponentDrill
T3C1.500
%
G90
G05
T1
X111.96Y-55.94
X111.96Y-61.02
X111.96Y-64.9
X111.96Y-69.98
T2
X82.85Y-40.15
X82.85Y-42.69
X82.85Y-45.23
X82.85Y-47.77
X82.85Y-50.31
X82.85Y-52.85
X82.85Y-55.39
X82.85Y-57.93
X82.85Y-60.47
X82.85Y-63.01
X82.85Y-65.55
X82.85Y-68.09
X82.85Y-70.63
X82.85Y-73.17
X82.85Y-75.71
X82.85Y-78.25
X82.85Y-80.79
X82.85Y-83.33
X82.85Y-85.87
X82.85Y-88.41
X82.85Y-90.95
X82.85Y-93.49
X90.5Y-62.425
X93.04Y-62.425
X95.58Y-62.425
X98.12Y-62.425
X105.71Y-40.15
X105.71Y-42.69
X105.71Y-45.23
X105.71Y-47.77
X105.71Y-50.31
X105.71Y-52.85
X105.71Y-55.39
X105.71Y-57.93
X105.71Y-60.47
X105.71Y-63.01
X105.71Y-65.55
X105.71Y-68.09
X105.71Y-70.63
X105.71Y-73.17
X105.71Y-75.71
X105.71Y-78.25
X105.71Y-80.79
X105.71Y-83.33
X105.71Y-85.87
X105.71Y-88.41
X105.71Y-90.95
X105.71Y-93.49
T3
X70.75Y-79.77
X70.75Y-98.97
X70.75Y-118.17
X77.1Y-77.23
X77.1Y-96.43
X77.1Y-115.63
X90.51Y-79.77
X90.51Y-98.97
X90.51Y-118.17
X96.86Y-77.23
X96.86Y-96.43
X96.86Y-115.63
X110.14Y-79.77
X110.14Y-98.97
X110.14Y-118.17
X116.49Y-77.23
X116.49Y-96.43
X116.49Y-115.63
M30
