M48
; DRILL file {KiCad 8.0.3} date 2024-07-18T02:13:45+0800
; FORMAT={-:-/ absolute / metric / decimal}
; #@! TF.CreationDate,2024-07-18T02:13:45+08:00
; #@! TF.GenerationSoftware,Kicad,Pcbnew,8.0.3
; #@! TF.FileFunction,NonPlated,1,2,NPTH
FMAT,2
METRIC
; #@! TA.AperFunction,NonPlated,NPTH,ComponentDrill
T1C1.700
; #@! TA.AperFunction,NonPlated,NPTH,ComponentDrill
T2C4.000
%
G90
G05
T1
X69.48Y-82.31
X69.48Y-101.51
X69.48Y-120.71
X79.64Y-82.31
X79.64Y-101.51
X79.64Y-120.71
X89.24Y-82.31
X89.24Y-101.51
X89.24Y-120.71
X99.4Y-82.31
X99.4Y-101.51
X99.4Y-120.71
X108.87Y-82.31
X108.87Y-101.51
X108.87Y-120.71
X119.03Y-82.31
X119.03Y-101.51
X119.03Y-120.71
T2
X74.56Y-82.31
X74.56Y-101.51
X74.56Y-120.71
X94.32Y-82.31
X94.32Y-101.51
X94.32Y-120.71
X113.95Y-82.31
X113.95Y-101.51
X113.95Y-120.71
M30
