%TF.GenerationSoftware,KiCad,Pcbnew,8.0.3*%
%TF.CreationDate,2024-07-18T02:13:28+08:00*%
%TF.ProjectId,sesto_remote_v2,73657374-6f5f-4726-956d-6f74655f7632,rev?*%
%TF.SameCoordinates,Original*%
%TF.FileFunction,Soldermask,Bot*%
%TF.FilePolarity,Negative*%
%FSLAX46Y46*%
G04 Gerber Fmt 4.6, Leading zero omitted, Abs format (unit mm)*
G04 Created by KiCad (PCBNEW 8.0.3) date 2024-07-18 02:13:28*
%MOMM*%
%LPD*%
G01*
G04 APERTURE LIST*
G04 Aperture macros list*
%AMRoundRect*
0 Rectangle with rounded corners*
0 $1 Rounding radius*
0 $2 $3 $4 $5 $6 $7 $8 $9 X,Y pos of 4 corners*
0 Add a 4 corners polygon primitive as box body*
4,1,4,$2,$3,$4,$5,$6,$7,$8,$9,$2,$3,0*
0 Add four circle primitives for the rounded corners*
1,1,$1+$1,$2,$3*
1,1,$1+$1,$4,$5*
1,1,$1+$1,$6,$7*
1,1,$1+$1,$8,$9*
0 Add four rect primitives between the rounded corners*
20,1,$1+$1,$2,$3,$4,$5,0*
20,1,$1+$1,$4,$5,$6,$7,0*
20,1,$1+$1,$6,$7,$8,$9,0*
20,1,$1+$1,$8,$9,$2,$3,0*%
G04 Aperture macros list end*
%ADD10C,1.700000*%
%ADD11C,4.000000*%
%ADD12C,2.200000*%
%ADD13R,1.700000X1.700000*%
%ADD14O,1.700000X1.700000*%
%ADD15C,1.400000*%
%ADD16O,1.400000X1.400000*%
%ADD17RoundRect,0.250001X0.499999X1.449999X-0.499999X1.449999X-0.499999X-1.449999X0.499999X-1.449999X0*%
%ADD18RoundRect,0.250000X0.250000X1.500000X-0.250000X1.500000X-0.250000X-1.500000X0.250000X-1.500000X0*%
%ADD19RoundRect,0.218750X-0.256250X0.218750X-0.256250X-0.218750X0.256250X-0.218750X0.256250X0.218750X0*%
G04 APERTURE END LIST*
D10*
%TO.C,SW2*%
X89240000Y-82310000D03*
D11*
X94320000Y-82310000D03*
D10*
X99400000Y-82310000D03*
D12*
X96860000Y-77230000D03*
X90510000Y-79770000D03*
%TD*%
D10*
%TO.C,SW1*%
X69480000Y-82310000D03*
D11*
X74560000Y-82310000D03*
D10*
X79640000Y-82310000D03*
D12*
X77100000Y-77230000D03*
X70750000Y-79770000D03*
%TD*%
D10*
%TO.C,SW3*%
X108870000Y-82310000D03*
D11*
X113950000Y-82310000D03*
D10*
X119030000Y-82310000D03*
D12*
X116490000Y-77230000D03*
X110140000Y-79770000D03*
%TD*%
D13*
%TO.C,J3*%
X98120000Y-62425000D03*
D14*
X95580000Y-62425000D03*
X93040000Y-62425000D03*
X90500000Y-62425000D03*
%TD*%
D10*
%TO.C,SW8*%
X89240000Y-120710000D03*
D11*
X94320000Y-120710000D03*
D10*
X99400000Y-120710000D03*
D12*
X96860000Y-115630000D03*
X90510000Y-118170000D03*
%TD*%
D10*
%TO.C,SW9*%
X108870000Y-120710000D03*
D11*
X113950000Y-120710000D03*
D10*
X119030000Y-120710000D03*
D12*
X116490000Y-115630000D03*
X110140000Y-118170000D03*
%TD*%
D15*
%TO.C,R1*%
X111960000Y-55940000D03*
D16*
X111960000Y-61020000D03*
%TD*%
D10*
%TO.C,SW6*%
X108870000Y-101510000D03*
D11*
X113950000Y-101510000D03*
D10*
X119030000Y-101510000D03*
D12*
X116490000Y-96430000D03*
X110140000Y-98970000D03*
%TD*%
D10*
%TO.C,SW7*%
X69480000Y-120710000D03*
D11*
X74560000Y-120710000D03*
D10*
X79640000Y-120710000D03*
D12*
X77100000Y-115630000D03*
X70750000Y-118170000D03*
%TD*%
D10*
%TO.C,SW4*%
X69480000Y-101510000D03*
D11*
X74560000Y-101510000D03*
D10*
X79640000Y-101510000D03*
D12*
X77100000Y-96430000D03*
X70750000Y-98970000D03*
%TD*%
D15*
%TO.C,R2*%
X111960000Y-64900000D03*
D16*
X111960000Y-69980000D03*
%TD*%
D10*
%TO.C,SW5*%
X89240000Y-101510000D03*
D11*
X94320000Y-101510000D03*
D10*
X99400000Y-101510000D03*
D12*
X96860000Y-96430000D03*
X90510000Y-98970000D03*
%TD*%
D17*
%TO.C,J4*%
X118170000Y-66540000D03*
X124870000Y-66540000D03*
D18*
X120520000Y-60790000D03*
X122520000Y-60790000D03*
%TD*%
D19*
%TO.C,D6*%
X110140000Y-109875000D03*
X110140000Y-111450000D03*
%TD*%
%TO.C,D3*%
X110140000Y-90612500D03*
X110140000Y-92187500D03*
%TD*%
%TO.C,D9*%
X110140000Y-129682500D03*
X110140000Y-131257500D03*
%TD*%
D13*
%TO.C,J1*%
X105710000Y-40150000D03*
D14*
X105710000Y-42690000D03*
X105710000Y-45230000D03*
X105710000Y-47770000D03*
X105710000Y-50310000D03*
X105710000Y-52850000D03*
X105710000Y-55390000D03*
X105710000Y-57930000D03*
X105710000Y-60470000D03*
X105710000Y-63010000D03*
X105710000Y-65550000D03*
X105710000Y-68090000D03*
X105710000Y-70630000D03*
X105710000Y-73170000D03*
X105710000Y-75710000D03*
X105710000Y-78250000D03*
X105710000Y-80790000D03*
X105710000Y-83330000D03*
X105710000Y-85870000D03*
X105710000Y-88410000D03*
X105710000Y-90950000D03*
X105710000Y-93490000D03*
%TD*%
D19*
%TO.C,D7*%
X70750000Y-129702500D03*
X70750000Y-131277500D03*
%TD*%
%TO.C,D1*%
X70750000Y-90612500D03*
X70750000Y-92187500D03*
%TD*%
%TO.C,D5*%
X90510000Y-109875000D03*
X90510000Y-111450000D03*
%TD*%
%TO.C,D2*%
X90510000Y-90612500D03*
X90510000Y-92187500D03*
%TD*%
%TO.C,D8*%
X90510000Y-129675000D03*
X90510000Y-131250000D03*
%TD*%
%TO.C,D4*%
X70750000Y-109875000D03*
X70750000Y-111450000D03*
%TD*%
D13*
%TO.C,J2*%
X82850000Y-40150000D03*
D14*
X82850000Y-42690000D03*
X82850000Y-45230000D03*
X82850000Y-47770000D03*
X82850000Y-50310000D03*
X82850000Y-52850000D03*
X82850000Y-55390000D03*
X82850000Y-57930000D03*
X82850000Y-60470000D03*
X82850000Y-63010000D03*
X82850000Y-65550000D03*
X82850000Y-68090000D03*
X82850000Y-70630000D03*
X82850000Y-73170000D03*
X82850000Y-75710000D03*
X82850000Y-78250000D03*
X82850000Y-80790000D03*
X82850000Y-83330000D03*
X82850000Y-85870000D03*
X82850000Y-88410000D03*
X82850000Y-90950000D03*
X82850000Y-93490000D03*
%TD*%
M02*
