M48
; DRILL file {KiCad 8.0.3} date 2024-07-08T01:18:56+0800
; FORMAT={-:-/ absolute / metric / decimal}
; #@! TF.CreationDate,2024-07-08T01:18:56+08:00
; #@! TF.GenerationSoftware,Kicad,Pcbnew,8.0.3
; #@! TF.FileFunction,Plated,1,2,PTH
FMAT,2
METRIC
; #@! TA.AperFunction,Plated,PTH,ComponentDrill
T1C1.000
; #@! TA.AperFunction,Plated,PTH,ComponentDrill
T2C1.100
; #@! TA.AperFunction,Plated,PTH,ComponentDrill
T3C1.700
%
G90
G05
T1
X101.05Y-44.04
X101.05Y-46.58
X101.05Y-49.12
X101.05Y-51.66
X101.05Y-54.2
X101.05Y-56.74
X101.05Y-59.28
X101.05Y-61.82
X101.05Y-64.36
X101.05Y-66.9
X101.05Y-69.44
X101.05Y-71.98
X101.05Y-74.52
X101.05Y-77.06
X101.05Y-79.6
X101.05Y-82.14
X101.05Y-84.68
X108.55Y-43.99
X108.55Y-46.53
X108.55Y-49.07
X108.55Y-51.61
X108.55Y-54.15
X108.55Y-56.69
X108.55Y-59.23
X108.55Y-61.77
X108.55Y-64.31
X108.55Y-66.85
X108.55Y-69.39
X108.55Y-71.93
X108.55Y-74.47
X108.55Y-77.01
X108.55Y-79.55
X108.55Y-82.09
X108.55Y-84.63
X131.4Y-51.64
X131.4Y-54.18
X131.4Y-56.72
X131.4Y-59.26
X131.4Y-61.8
X131.4Y-64.34
X131.4Y-66.88
X131.4Y-69.42
X131.4Y-71.96
X131.4Y-74.5
X131.4Y-77.04
X131.4Y-79.58
X131.4Y-82.12
X131.4Y-84.66
X138.9Y-51.64
X138.9Y-54.18
X138.9Y-56.72
X138.9Y-59.26
X138.9Y-61.8
X138.9Y-64.34
X138.9Y-66.88
X138.9Y-69.42
X138.9Y-71.96
X138.9Y-74.5
X138.9Y-77.04
X138.9Y-79.58
X138.9Y-82.12
X138.9Y-84.66
T2
X153.9Y-53.0
X153.9Y-59.5
X153.9Y-65.0
X153.9Y-71.5
X153.9Y-76.6
X153.9Y-83.1
X158.4Y-53.0
X158.4Y-59.5
X158.4Y-65.0
X158.4Y-71.5
X158.4Y-76.6
X158.4Y-83.1
T3
X95.455Y-90.34
X95.455Y-94.3
X95.455Y-98.26
M30
